<svg id="Capa_1" enable-background="new 0 0 512 512" height="512" viewBox="0 0 512 512" width="512" xmlns="http://www.w3.org/2000/svg">	 <style>
	 	* { fill: white; }
	 </style><g><path d="m492 80h-139.44c2.22-6.26 3.44-12.989 3.44-20 0-33.084-26.916-60-60-60-15.355 0-29.376 5.805-40 15.327-10.624-9.522-24.645-15.327-40-15.327-33.084 0-60 26.916-60 60 0 7.011 1.22 13.74 3.44 20h-139.44c-11.046 0-20 8.954-20 20v80c0 11.046 8.954 20 20 20h20v292c0 11.046 8.954 20 20 20h392c11.046 0 20-8.954 20-20v-292h20c11.046 0 20-8.954 20-20v-80c0-11.046-8.954-20-20-20zm-216-20c0-11.028 8.972-20 20-20s20 8.972 20 20-8.972 20-20 20h-20zm-60-20c11.028 0 20 8.972 20 20v20h-20c-11.028 0-20-8.972-20-20s8.972-20 20-20zm20 432h-156v-116h156zm0-156h-156v-116h156zm196 156h-156v-116h156zm0-156h-156v-116h156zm40-156c-25.457 0-408.444 0-432 0v-40h432z"/></g></svg>